<svg width="512" height="512" viewBox="0 0 512 512" fill="none" xmlns="http://www.w3.org/2000/svg">
<rect width="512" height="512" rx="80" fill="#051330"/>
<path fill-rule="evenodd" clip-rule="evenodd" d="M470 323.18V177.901C470 144.052 442.849 116.611 409.356 116.611H403.741H386.895H136.458H85.9215H72.445C55.0784 116.611 41 130.84 41 148.391V323.18C41 373.328 81.224 413.98 130.843 413.98L371.173 413.98L380.157 413.98C383.96 413.98 387.708 413.741 391.387 413.277C399.233 412.289 406.765 410.277 413.848 407.38C421.106 404.411 427.892 400.511 434.063 395.827C439.895 391.399 445.177 386.272 449.785 380.567C462.421 364.926 470 344.947 470 323.18ZM55.5995 327.72V186.981H455.401V325.45C455.401 368.58 409.356 398.09 391.387 398.09H119.613C85.9215 398.09 55.5995 354.96 55.5995 327.72ZM454.277 171.091H55.5995V146.121C55.5995 140.446 62.3377 131.366 72.445 131.366H411.602C422.832 131.366 452.031 146.121 454.277 171.091Z" fill="white"/>
<path d="M312.775 41.7018L85.9215 116.611H136.458L324.005 55.3221C337.482 50.7821 366.681 59.8621 376.788 84.8319L386.895 116.611H403.741L388.018 71.2117C374.542 39.4322 336.359 32.6222 312.775 41.7018Z" fill="white"/>
<path d="M413.848 446.895C413.848 452.537 418.373 457.11 423.955 457.11C429.538 457.11 434.063 452.537 434.063 446.895V395.827C427.892 400.511 421.106 404.411 413.848 407.38V446.895Z" fill="white"/>
<path d="M371.173 462.785C371.173 468.427 375.698 473 381.28 473C386.862 473 391.387 468.427 391.387 462.785V413.277C387.708 413.741 383.96 413.98 380.157 413.98L371.173 413.98V462.785Z" fill="white"/>
<path d="M470 401.495V323.18C470 344.947 462.421 364.926 449.785 380.567V401.495C449.785 407.137 454.311 411.71 459.893 411.71C465.475 411.71 470 407.137 470 401.495Z" fill="white"/>
<path fill-rule="evenodd" clip-rule="evenodd" d="M380.259 344.185C379.708 344.027 379.388 343.453 379.545 342.902L380.475 339.648L379.345 339.326L378.416 342.58C378.259 343.131 377.684 343.451 377.132 343.293C376.58 343.136 376.26 342.562 376.418 342.011L377.347 338.757L372.308 337.321C371.349 337.047 370.793 336.048 371.067 335.09C371.34 334.131 372.34 333.576 373.3 333.849L375.385 334.444L381.755 312.142L379.67 311.548C378.711 311.274 378.155 310.275 378.428 309.317C378.702 308.358 379.702 307.803 380.662 308.076L385.701 309.512L386.63 306.258C386.788 305.707 387.363 305.388 387.914 305.545C388.466 305.702 388.786 306.277 388.628 306.828L387.699 310.082L388.828 310.404L389.758 307.15C389.915 306.599 390.49 306.279 391.042 306.436C391.594 306.594 391.913 307.168 391.756 307.719L390.826 310.973L391.869 311.27C396.56 312.607 399.601 314.459 400.738 317.88C401.824 321.149 400.121 326.291 395.709 327.098C400.439 329.947 400.584 336.511 395.993 340.082C392.816 342.555 389.144 342.353 383.516 340.514L382.473 340.217L381.544 343.472C381.386 344.023 380.811 344.342 380.259 344.185ZM386.707 313.553L384.092 322.708L389.001 324.107C391.824 324.912 394.759 324.669 395.968 322.245C397.127 319.522 396.413 317.398 394.477 316.283C393.549 315.749 392.354 315.162 390.878 314.742L386.707 313.553ZM383.225 325.745L380.337 335.855L384.507 337.043C389.589 338.492 392.202 338.392 393.864 336.191C395.51 333.465 395.401 330.811 393.042 329.2C391.269 328.038 390.164 327.723 388.221 327.169L388.133 327.144L383.225 325.745Z" fill="white"/>
<path fill-rule="evenodd" clip-rule="evenodd" d="M423.051 335.969C417.486 355.451 397.164 366.738 377.66 361.18C358.155 355.621 346.855 335.322 352.42 315.84C357.985 296.358 378.308 285.071 397.812 290.63C417.316 296.188 428.616 316.487 423.051 335.969ZM379.395 355.105C395.54 359.707 412.363 350.363 416.97 334.236C421.577 318.109 412.222 301.305 396.077 296.704C379.931 292.103 363.108 301.446 358.501 317.573C353.895 333.7 363.249 350.504 379.395 355.105Z" fill="white"/>
</svg>
